<svg width="50" height="48" viewBox="0 0 50 48" fill="none" xmlns="http://www.w3.org/2000/svg">
<path fill-rule="evenodd" clip-rule="evenodd" d="M24.0922 0.283203C37.0823 0.283203 50 8.15541 50 21.1456C50 35.5334 38.48 47.3399 24.0922 47.3399C10.1938 47.3399 0 35.0439 0 21.1456C0 8.69974 11.6463 0.283203 24.0922 0.283203Z" fill="#FCCD35"/>
<path fill-rule="evenodd" clip-rule="evenodd" d="M25.2925 13.812C19.7737 13.812 15.293 18.2928 15.293 23.8116C15.293 29.3304 19.7737 33.8111 25.2925 33.8111C30.8113 33.8111 35.2921 29.3304 35.2921 23.8116C35.2921 18.2928 30.8113 13.812 25.2925 13.812ZM25.2925 15.5815C29.8352 15.5815 33.5227 19.2692 33.5227 23.8117C33.5227 28.3544 29.8348 32.0419 25.2925 32.0419C20.7503 32.0419 17.0623 28.3542 17.0623 23.8117C17.0623 19.2691 20.7502 15.5815 25.2925 15.5815Z" fill="#0C0C0C"/>
<path fill-rule="evenodd" clip-rule="evenodd" d="M23.8316 23.314C23.6589 25.2973 23.2042 27.2207 22.495 29.0908C22.3218 29.5474 22.552 30.0585 23.0085 30.2316C23.4651 30.4047 23.9762 30.1747 24.1493 29.7181C24.6513 28.3942 25.035 27.0455 25.2926 25.6706C25.5502 27.0457 25.9338 28.3944 26.4359 29.7181C26.609 30.1747 27.12 30.4047 27.5767 30.2316C28.0333 30.0584 28.2634 29.5474 28.0902 29.0908C27.3815 27.2217 26.9269 25.2991 26.7541 23.3176C27.8138 23.2657 28.8741 23.1545 29.9341 22.9823C30.416 22.9039 30.7438 22.449 30.6654 21.9671C30.5872 21.4853 30.1324 21.1575 29.6503 21.2358C26.7434 21.7082 23.8367 21.6895 20.9297 21.2348C20.4473 21.1595 19.9944 21.49 19.9189 21.9723C19.8436 22.4547 20.174 22.9076 20.6564 22.983C21.7146 23.1485 22.773 23.2596 23.8317 23.3139L23.8316 23.314Z" fill="#0C0C0C"/>
<path fill-rule="evenodd" clip-rule="evenodd" d="M26.889 19.2502C26.889 20.132 26.1741 20.847 25.2921 20.847C24.4102 20.847 23.6953 20.1319 23.6953 19.2502C23.6953 18.3682 24.4102 17.6533 25.2921 17.6533C26.1741 17.6533 26.889 18.3682 26.889 19.2502Z" fill="#0C0C0C"/>
</svg>
