<svg width="50" height="48" viewBox="0 0 50 48" fill="none" xmlns="http://www.w3.org/2000/svg">
<path fill-rule="evenodd" clip-rule="evenodd" d="M24.0922 0.113281C37.0823 0.113281 50 7.98549 50 20.9757C50 35.3635 38.48 47.17 24.0922 47.17C10.1938 47.17 0 34.874 0 20.9757C0 8.52982 11.6463 0.113281 24.0922 0.113281Z" fill="#FCCD35"/>
<path d="M15.8693 33.3417H15.9575C15.9174 33.3231 15.8799 33.3071 15.8398 33.291C15.8505 33.3097 15.8585 33.3257 15.8693 33.3417Z" fill="black"/>
<path d="M29.25 29.6787H32.4584V32.8871H29.25V29.6787Z" fill="black"/>
<path d="M30.8797 16.3102C31.6017 16.2835 32.1899 15.6953 32.1899 14.9733C32.1899 14.4386 31.8423 13.9572 31.3611 13.7433C30.8799 13.5294 30.2917 13.6631 29.9174 14.0641C29.5431 14.4651 29.4362 15.0266 29.6499 15.5347C29.837 16.016 30.345 16.3102 30.8797 16.3102Z" fill="black"/>
<path d="M35.933 21.3902L36.4676 20.8553L32.4571 16.8447H24.9707V17.6469L29.2485 18.3688V21.6574L28.9813 29.4112H30.0507L30.8528 23.2617L31.655 29.4112H32.7244L32.4569 21.6574V19.064L35.933 21.3902Z" fill="black"/>
<path d="M18.5809 16.3102C19.3028 16.2835 19.8911 15.6953 19.8911 14.9733C19.8911 14.4386 19.5434 13.9572 19.0623 13.7433C18.5811 13.5294 17.9929 13.6631 17.6186 14.0641C17.2442 14.4651 17.1374 15.0266 17.3511 15.5347C17.5382 16.016 18.046 16.3102 18.5809 16.3102Z" fill="black"/>
<path d="M19.6237 16.8448H16.95L12.9395 20.5881L13.4741 21.1228L16.95 18.9571V23.2618L15.3457 32.8871H16.4151L18.5541 24.5986L20.6931 32.8871H21.7625L20.1584 23.2618V18.3689L24.4362 17.6469V16.8448H19.6237Z" fill="black"/>
</svg>
