<svg width="50" height="48" viewBox="0 0 50 48" fill="none" xmlns="http://www.w3.org/2000/svg">
<path fill-rule="evenodd" clip-rule="evenodd" d="M24.0922 0.169922C37.0823 0.169922 50 8.04213 50 21.0323C50 35.4201 38.48 47.2266 24.0922 47.2266C10.1938 47.2266 0 34.9307 0 21.0323C0 8.58646 11.6463 0.169922 24.0922 0.169922Z" fill="#FCCD35"/>
<path d="M34.6822 15.4637H24.052C23.7151 15.4637 23.4416 15.7374 23.4416 16.074V20.5156H24.3888C24.4729 20.5156 24.5782 20.5156 24.6625 20.5366L24.6623 16.6844H34.0717V25.315L24.6623 25.3148V24.0517C24.4729 24.157 24.2414 24.2202 24.0308 24.2202H23.4414V25.9252C23.4414 26.262 23.7151 26.5355 24.0518 26.5355H28.767V28.2406L26.662 30.3456C26.4304 30.5771 26.4304 30.9771 26.662 31.2087C26.7883 31.3349 26.9357 31.3771 27.083 31.3771C27.2304 31.3771 27.3986 31.3139 27.5039 31.2087L29.3564 29.3562L31.2088 31.2087C31.4404 31.4402 31.8403 31.4402 32.0719 31.2087C32.3034 30.9771 32.3034 30.5771 32.0719 30.3456L29.9669 28.2406V26.5355H34.6821C35.0189 26.5355 35.2925 26.2619 35.2925 25.9252V16.0738C35.2925 15.7371 35.0188 15.4634 34.6821 15.4634L34.6822 15.4637Z" fill="black"/>
<path d="M24.3042 22.9575L24.662 22.0103C24.7461 21.7997 24.5778 21.5893 24.3673 21.5893H17.6313C16.5578 21.5893 15.6525 22.3892 15.5473 23.4627L15.2947 26.0097C15.2737 26.2623 15.4422 26.4938 15.6947 26.536C15.9684 26.5991 16.3472 26.6413 16.7262 26.6834L16.9578 30.7461C16.9788 31.0829 17.2525 31.3564 17.6103 31.3564H19.5679C19.9047 31.3564 20.1994 31.0827 20.2204 30.7461L20.5572 23.7785C20.5572 23.4417 20.8519 23.147 21.1887 23.147H24.0304C24.1569 23.147 24.262 23.0628 24.3041 22.9575L24.3042 22.9575Z" fill="black"/>
<path d="M20.7259 18.8527C20.7259 20.0385 19.7646 20.9998 18.5788 20.9998C17.393 20.9998 16.4316 20.0385 16.4316 18.8527C16.4316 17.6669 17.393 16.7056 18.5788 16.7056C19.7646 16.7056 20.7259 17.6669 20.7259 18.8527Z" fill="black"/>
<path d="M31.5039 21.4206C31.5039 21.6732 31.6933 21.8628 31.946 21.8628H32.4933C32.7459 21.8628 32.9354 21.6734 32.9354 21.4206C32.9354 21.1681 32.746 20.9785 32.4933 20.9785H31.946C31.6933 20.9785 31.5039 21.1679 31.5039 21.4206Z" fill="black"/>
<path d="M31.2727 18.8949L30.8939 19.2737C30.8097 19.3578 30.7676 19.4631 30.7676 19.5894C30.7676 19.7157 30.8097 19.8209 30.8939 19.9051C30.978 19.9892 31.0833 20.0314 31.2095 20.0314C31.3358 20.0314 31.4411 19.9892 31.5252 19.9051L31.9041 19.5262C31.9882 19.4421 32.0303 19.3368 32.0303 19.2106C32.0303 19.0843 31.9882 18.979 31.9041 18.8949C31.7148 18.7264 31.4411 18.7264 31.2727 18.8949Z" fill="black"/>
<path d="M29.7983 18.8317V18.2844C29.7983 18.0319 29.6089 17.8423 29.3562 17.8423C29.1036 17.8423 28.9141 18.0317 28.9141 18.2844V18.8317C28.9141 19.0842 29.1035 19.2738 29.3562 19.2738C29.6089 19.2737 29.7983 19.0842 29.7983 18.8317Z" fill="black"/>
<path d="M27.2297 19.905C27.3138 19.9892 27.4191 20.0313 27.5454 20.0313C27.6717 20.0313 27.777 19.9892 27.8611 19.905C27.9452 19.8209 27.9874 19.7156 27.9874 19.5893C27.9874 19.4631 27.9452 19.3578 27.8611 19.2737L27.4823 18.8948C27.3981 18.8107 27.2929 18.7686 27.1666 18.7686C27.0403 18.7686 26.935 18.8107 26.8509 18.8948C26.7667 18.979 26.7246 19.0842 26.7246 19.2105C26.7246 19.3368 26.7667 19.4421 26.8509 19.5262L27.2297 19.905Z" fill="black"/>
<path d="M25.7988 21.4206C25.7988 21.6732 25.9882 21.8628 26.241 21.8628H26.7882C27.0408 21.8628 27.2303 21.6734 27.2303 21.4206C27.2303 21.1681 27.0409 20.9785 26.7882 20.9785H26.241C26.0092 20.9785 25.7988 21.1679 25.7988 21.4206Z" fill="black"/>
<path d="M28.6406 23.8203C28.6406 23.9466 28.7459 24.0729 28.8932 24.0729H29.8825C30.0088 24.0729 30.1141 23.9676 30.1141 23.8203V23.0415H28.6616L28.6617 23.8203H28.6406Z" fill="black"/>
<path d="M27.9883 21.2103C27.9461 21.6944 28.1357 22.1365 28.4514 22.4102C28.5145 22.4733 28.5988 22.4943 28.6829 22.4943H29.967C30.0511 22.4943 30.1354 22.4733 30.1985 22.4102C30.4932 22.1576 30.6826 21.7787 30.6826 21.3787C30.6826 20.5368 29.9248 19.8841 29.0617 20.0525C28.5145 20.1368 28.0725 20.6419 27.9882 21.2103L27.9883 21.2103Z" fill="black"/>
</svg>
