<svg width="130" height="17" viewBox="0 0 130 17" fill="none" xmlns="http://www.w3.org/2000/svg">
<path d="M35.3999 16.9193H33.5217C32.2295 16.9193 31.1777 15.9276 31.1777 14.6955V8.24963C31.1777 7.69368 31.6285 7.24292 32.1995 7.24292C32.7554 7.24292 33.2062 7.69368 33.2062 8.24963V14.6955C33.2062 14.7857 33.3264 14.9059 33.5217 14.9059H35.3999C35.9708 14.9059 36.4216 15.3566 36.4216 15.9126C36.4216 16.4685 35.9708 16.9193 35.3999 16.9193Z" fill="#231F20"/>
<path d="M37.2944 16.9188H35.4012C34.8453 16.9188 34.3945 16.468 34.3945 15.9121C34.3945 15.3562 34.8453 14.9054 35.4012 14.9054H37.2944C37.4747 14.9054 37.61 14.7852 37.61 14.695V11.134C37.61 10.5781 38.0607 10.1273 38.6167 10.1273C39.1726 10.1273 39.6234 10.5781 39.6234 11.134V14.695C39.6234 15.9271 38.5866 16.9188 37.2944 16.9188Z" fill="#231F20"/>
<path d="M43.7046 16.9193H41.8264C41.2705 16.9193 40.8047 16.4685 40.8047 15.9126C40.8047 15.3566 41.2705 14.9059 41.8264 14.9059H43.7046C43.8999 14.9059 44.0201 14.7857 44.0201 14.6955V8.24963C44.0201 7.69368 44.4709 7.24292 45.0418 7.24292C45.5978 7.24292 46.0486 7.69368 46.0486 8.24963V14.6955C46.0486 15.9276 44.9968 16.9193 43.7046 16.9193Z" fill="#231F20"/>
<path d="M41.8276 16.9193H39.9494C38.6573 16.9193 37.6055 15.9276 37.6055 14.6955V11.1345C37.6055 10.5786 38.0562 10.1278 38.6122 10.1278C39.1681 10.1278 39.6189 10.5786 39.6189 11.1345V14.6955C39.6189 14.7857 39.7541 14.9059 39.9494 14.9059H41.8276C42.3836 14.9059 42.8343 15.3567 42.8343 15.9126C42.8343 16.4685 42.3836 16.9193 41.8276 16.9193Z" fill="#231F20"/>
<path d="M1.0067 16.9187C0.450755 16.9187 0 16.4679 0 15.912V1.42748C0 0.871541 0.450755 0.420776 1.0067 0.420776C1.56264 0.420776 2.01341 0.871541 2.01341 1.42748V15.912C2.01341 16.4679 1.56264 16.9187 1.0067 16.9187Z" fill="#231F20"/>
<path d="M28.909 15.356C28.338 15.356 27.8873 14.8902 27.8873 14.3342V13.0871H24.0558V14.3342C24.0558 14.8902 23.605 15.356 23.034 15.356C22.4781 15.356 22.0273 14.8902 22.0273 14.3342V12.7716C22.0273 11.81 22.8688 11.0737 23.9356 11.0737H28.0075C29.0743 11.0737 29.9157 11.81 29.9157 12.7716V14.3342C29.9157 14.8902 29.4649 15.356 28.909 15.356Z" fill="#231F20"/>
<path d="M27.6919 16.9186H24.2511C23.0341 16.9186 22.0273 15.9269 22.0273 14.6948V12.9669C22.0273 12.4109 22.4781 11.9602 23.034 11.9602C23.605 11.9602 24.0558 12.4109 24.0558 12.9669V14.6948C24.0558 14.815 24.1459 14.9052 24.2511 14.9052H27.6919C27.7971 14.9052 27.8873 14.815 27.8873 14.6948V9.46595C27.8873 9.34575 27.7971 9.25559 27.6919 9.25559H24.2511C24.1459 9.25559 24.0558 9.34575 24.0558 9.46595C24.0558 10.0219 23.605 10.4727 23.034 10.4727C22.4781 10.4727 22.0273 10.0219 22.0273 9.46595C22.0273 8.23387 23.0341 7.24219 24.2511 7.24219H27.6919C28.924 7.24219 29.9157 8.23387 29.9157 9.46595V14.6948C29.9157 15.9269 28.924 16.9186 27.6919 16.9186Z" fill="#231F20"/>
<path d="M19.7568 16.9186C19.1858 16.9186 18.735 16.4678 18.735 15.9119V9.84159C18.735 9.52605 18.4796 9.25559 18.1641 9.25559H15.3243C14.9937 9.25559 14.7383 9.52605 14.7383 9.84159V15.9119C14.7383 16.4678 14.2875 16.9186 13.7316 16.9186C13.1756 16.9186 12.7249 16.4678 12.7249 15.9119V9.84159C12.7249 8.39915 13.8818 7.24219 15.3243 7.24219H18.1641C19.5915 7.24219 20.7635 8.39915 20.7635 9.84159V15.9119C20.7635 16.4678 20.3127 16.9186 19.7568 16.9186Z" fill="#231F20"/>
<path d="M111.431 16.9178C110.875 16.9178 110.409 16.4671 110.409 15.9111V2.64368C110.409 2.55353 110.289 2.43333 110.094 2.43333H108.216C107.66 2.43333 107.209 1.98257 107.209 1.42663C107.209 0.870686 107.66 0.419922 108.216 0.419922H110.094C111.386 0.419922 112.438 1.4116 112.438 2.64368V15.9111C112.438 16.4671 111.987 16.9178 111.431 16.9178Z" fill="#231F20"/>
<path d="M104.995 9.25487C104.439 9.25487 103.988 8.80411 103.988 8.24817V2.64368C103.988 1.4116 105.04 0.419922 106.332 0.419922H108.21C108.766 0.419922 109.217 0.870686 109.217 1.42663C109.217 1.98257 108.766 2.43333 108.21 2.43333H106.332C106.137 2.43333 106.017 2.55353 106.017 2.64368V8.24817C106.017 8.80411 105.566 9.25487 104.995 9.25487Z" fill="#231F20"/>
<path d="M98.5868 16.9178C98.0308 16.9178 97.5801 16.4671 97.5801 15.9111V2.64368C97.5801 1.4116 98.6319 0.419922 99.909 0.419922H101.802C102.358 0.419922 102.809 0.870686 102.809 1.42663C102.809 1.98257 102.358 2.43333 101.802 2.43333H99.909C99.7287 2.43333 99.5935 2.55353 99.5935 2.64368V15.9111C99.5935 16.4671 99.1427 16.9178 98.5868 16.9178Z" fill="#231F20"/>
<path d="M105.001 9.25523C104.445 9.25523 103.995 8.80447 103.995 8.24853V2.64405C103.995 2.5539 103.875 2.43369 103.679 2.43369H101.801C101.23 2.43369 100.779 1.98293 100.779 1.42699C100.779 0.871053 101.23 0.420288 101.801 0.420288H103.679C104.971 0.420288 106.023 1.41196 106.023 2.64405V8.24853C106.023 8.80447 105.572 9.25523 105.001 9.25523Z" fill="#231F20"/>
<path d="M120.474 13.0875H116.402C115.335 13.0875 114.494 12.3513 114.494 11.4047V9.82702C114.494 9.27108 114.945 8.82031 115.501 8.82031C116.072 8.82031 116.522 9.27108 116.522 9.82702V11.0741H120.354V9.82702C120.354 9.27108 120.805 8.82031 121.376 8.82031C121.931 8.82031 122.382 9.27108 122.382 9.82702V11.4047C122.382 12.3513 121.541 13.0875 120.474 13.0875Z" fill="#231F20"/>
<path d="M120.159 16.9186H116.718C115.501 16.9186 114.494 15.9269 114.494 14.6948V9.46595C114.494 8.23387 115.501 7.24219 116.718 7.24219H120.159C121.376 7.24219 122.382 8.23387 122.382 9.46595V11.1939C122.382 11.7498 121.932 12.2006 121.376 12.2006C120.805 12.2006 120.354 11.7498 120.354 11.1939V9.46595C120.354 9.34575 120.264 9.25559 120.159 9.25559H116.718C116.613 9.25559 116.523 9.34575 116.523 9.46595V14.6948C116.523 14.815 116.613 14.9052 116.718 14.9052H120.159C120.264 14.9052 120.354 14.815 120.354 14.6948C120.354 14.1389 120.805 13.6881 121.376 13.6881C121.932 13.6881 122.382 14.1389 122.382 14.6948C122.382 15.9269 121.376 16.9186 120.159 16.9186Z" fill="#231F20"/>
<path d="M128.993 16.9183H126.484C125.057 16.9183 123.885 15.7614 123.885 14.3189V1.42712C123.885 0.871175 124.336 0.42041 124.891 0.42041C125.462 0.42041 125.913 0.871175 125.913 1.42712V14.3189C125.913 14.6345 126.169 14.9049 126.484 14.9049H128.993C129.549 14.9049 130 15.3557 130 15.9116C130 16.4676 129.549 16.9183 128.993 16.9183Z" fill="#231F20"/>
<path d="M7.42256 13.0872H1.0067C0.450755 13.0872 0 12.6364 0 12.0805C0 11.5246 0.450755 11.0738 1.0067 11.0738H6.68631L9.78155 1.12697C9.90175 0.706261 10.2924 0.420776 10.7432 0.420776H12.1405C13.583 0.420776 14.7399 1.57773 14.7399 3.02017V10.0521C14.7399 10.623 14.2892 11.0738 13.7332 11.0738C13.1773 11.0738 12.7265 10.623 12.7265 10.0521V3.02017C12.7265 2.68961 12.4561 2.43418 12.1405 2.43418H11.4944L8.39921 12.381C8.26398 12.8017 7.87332 13.0872 7.42256 13.0872Z" fill="#231F20"/>
<path d="M10.4877 16.9183C10.2022 16.9183 9.90175 16.798 9.70642 16.5426L6.94174 13.0868H1.0067C0.450755 13.0868 0 12.636 0 12.0801C0 11.5241 0.450755 11.0734 1.0067 11.0734H7.42256C7.7381 11.0734 8.02357 11.2086 8.2189 11.449L11.2841 15.2805C11.6297 15.7162 11.5545 16.3473 11.1188 16.7079C10.9385 16.8582 10.7131 16.9183 10.4877 16.9183Z" fill="#231F20"/>
<path d="M70.2788 16.4986H68.4006C67.1084 16.4986 66.0566 15.507 66.0566 14.2749V7.82897C66.0566 7.27303 66.5074 6.82227 67.0784 6.82227C67.6343 6.82227 68.0851 7.27303 68.0851 7.82897V14.2749C68.0851 14.365 68.2053 14.4852 68.4006 14.4852H70.2788C70.8497 14.4852 71.3005 14.936 71.3005 15.4919C71.3005 16.0479 70.8497 16.4986 70.2788 16.4986Z" fill="#231F20"/>
<path d="M72.1694 16.4982H70.2762C69.7203 16.4982 69.2695 16.0474 69.2695 15.4915C69.2695 14.9355 69.7203 14.4848 70.2762 14.4848H72.1694C72.3497 14.4848 72.485 14.3645 72.485 14.2744V10.7134C72.485 10.1574 72.9357 9.70667 73.4917 9.70667C74.0476 9.70667 74.4984 10.1574 74.4984 10.7134V14.2744C74.4984 15.5065 73.4616 16.4982 72.1694 16.4982Z" fill="#231F20"/>
<path d="M78.5835 16.4981H76.7053C76.1494 16.4981 75.6836 16.0474 75.6836 15.4914C75.6836 14.9355 76.1494 14.4847 76.7053 14.4847H78.5835C78.7788 14.4847 78.899 14.3645 78.899 14.2744V7.82848C78.899 7.27254 79.3498 6.82178 79.9208 6.82178C80.4767 6.82178 80.9275 7.27254 80.9275 7.82848V14.2744C80.9275 15.5065 79.8757 16.4981 78.5835 16.4981Z" fill="#231F20"/>
<path d="M76.7065 16.4982H74.8283C73.5362 16.4982 72.4844 15.5065 72.4844 14.2744V10.7134C72.4844 10.1574 72.9351 9.70667 73.4911 9.70667C74.047 9.70667 74.4978 10.1574 74.4978 10.7134V14.2744C74.4978 14.3645 74.633 14.4848 74.8283 14.4848H76.7065C77.2625 14.4848 77.7132 14.9355 77.7132 15.4915C77.7132 16.0474 77.2625 16.4982 76.7065 16.4982Z" fill="#231F20"/>
<path d="M51.4612 16.4979C50.8902 16.4979 50.4395 16.0471 50.4395 15.4912V2.22376C50.4395 0.991676 51.4912 0 52.7834 0H56.1641C57.6066 0 58.7635 1.15696 58.7635 2.5994V9.42094C58.7635 9.97688 58.3128 10.4427 57.7568 10.4427C57.2009 10.4427 56.7501 9.97688 56.7501 9.42094V2.5994C56.7501 2.28386 56.4797 2.01341 56.1641 2.01341H52.7834C52.5881 2.01341 52.4679 2.13361 52.4679 2.22376V15.4912C52.4679 16.0471 52.0171 16.4979 51.4612 16.4979Z" fill="#231F20"/>
<path d="M51.4638 16.4979C50.8928 16.4979 50.442 16.0471 50.442 15.4912V2.22376C50.442 2.13361 50.3218 2.01341 50.1265 2.01341H46.1448C45.5738 2.01341 45.123 1.56264 45.123 1.0067C45.123 0.45076 45.5738 0 46.1448 0H50.1265C51.4187 0 52.4705 0.991676 52.4705 2.22376V15.4912C52.4705 16.0471 52.0197 16.4979 51.4638 16.4979Z" fill="#231F20"/>
<path d="M88.7842 14.9348C88.2283 14.9348 87.7775 14.469 87.7775 13.9131V12.666H83.931V13.9131C83.931 14.469 83.4803 14.9348 82.9243 14.9348C82.3684 14.9348 81.9026 14.469 81.9026 13.9131V12.3505C81.9026 11.3888 82.744 10.6526 83.8108 10.6526H87.8977C88.9645 10.6526 89.7909 11.3888 89.7909 12.3505V13.9131C89.7909 14.469 89.3402 14.9348 88.7842 14.9348Z" fill="#231F20"/>
<path d="M87.5672 16.4984H84.1414C82.9093 16.4984 81.9026 15.5067 81.9026 14.2746V12.5617C81.9026 11.9908 82.3684 11.54 82.9243 11.54C83.4803 11.54 83.931 11.9908 83.931 12.5617V14.2746C83.931 14.3948 84.0212 14.485 84.1414 14.485H87.5672C87.6874 14.485 87.7775 14.3948 87.7775 14.2746V9.04578C87.7775 8.9406 87.6874 8.83543 87.5672 8.83543H84.1414C84.0212 8.83543 83.931 8.9406 83.931 9.04578C83.931 9.60172 83.4803 10.0525 82.9243 10.0525C82.3684 10.0525 81.9026 9.60172 81.9026 9.04578C81.9026 7.8137 82.9093 6.82202 84.1414 6.82202H87.5672C88.7992 6.82202 89.7909 7.8137 89.7909 9.04578V14.2746C89.7909 15.5067 88.7992 16.4984 87.5672 16.4984Z" fill="#231F20"/>
<path d="M91.788 16.4986C91.232 16.4986 90.7812 16.0479 90.7812 15.4919V9.04603C90.7812 7.81394 91.833 6.82227 93.1252 6.82227H95.0034C95.5593 6.82227 96.0101 7.27303 96.0101 7.82897C96.0101 8.38491 95.5593 8.83567 95.0034 8.83567H93.1252C92.9299 8.83567 92.8097 8.95587 92.8097 9.04603V15.4919C92.8097 16.0479 92.3589 16.4986 91.788 16.4986Z" fill="#231F20"/>
<path d="M63.7817 16.4984C63.2107 16.4984 62.7599 16.0476 62.7599 15.4917V9.42142C62.7599 9.10588 62.5045 8.83543 62.189 8.83543H59.3492C59.0336 8.83543 58.7632 9.10588 58.7632 9.42142V15.4917C58.7632 16.0476 58.3124 16.4984 57.7565 16.4984C57.2005 16.4984 56.7498 16.0476 56.7498 15.4917V9.42142C56.7498 7.97898 57.9067 6.82202 59.3492 6.82202H62.189C63.6164 6.82202 64.7884 7.97898 64.7884 9.42142V15.4917C64.7884 16.0476 64.3376 16.4984 63.7817 16.4984Z" fill="#231F20"/>
</svg>
