<svg width="150" height="20" viewBox="0 0 150 20" fill="none" xmlns="http://www.w3.org/2000/svg">
<path d="M40.8603 19.5216H38.6761C37.1973 19.5216 35.9688 18.3841 35.9688 16.9508V9.51111C35.9688 8.87407 36.492 8.35083 37.1518 8.35083C37.7888 8.35083 38.3121 8.87407 38.3121 9.51111V16.9508C38.3121 17.0645 38.4486 17.201 38.6761 17.201H40.8603C41.4973 17.201 42.0206 17.7243 42.0206 18.3613C42.0206 18.9984 41.4973 19.5216 40.8603 19.5216Z" fill="#6C00A1"/>
<path d="M43.0202 19.5212H40.8588C40.1991 19.5212 39.6758 18.9979 39.6758 18.3609C39.6758 17.7238 40.1991 17.2005 40.8588 17.2005H43.0202C43.2477 17.2005 43.3842 17.0641 43.3842 16.9503V12.8551C43.3842 12.1953 43.9075 11.672 44.5445 11.672C45.2043 11.672 45.7276 12.1953 45.7276 12.8551V16.9503C45.7276 18.3836 44.499 19.5212 43.0202 19.5212Z" fill="#6C00A1"/>
<path d="M50.4382 19.5216H48.2541C47.617 19.5216 47.0938 18.9984 47.0938 18.3613C47.0938 17.7243 47.617 17.201 48.2541 17.201H50.4382C50.6657 17.201 50.8022 17.0645 50.8022 16.9508V9.51111C50.8022 8.87407 51.3255 8.35083 51.9625 8.35083C52.5995 8.35083 53.1228 8.87407 53.1228 9.51111V16.9508C53.1228 18.3841 51.917 19.5216 50.4382 19.5216Z" fill="#6C00A1"/>
<path d="M48.2535 19.5212H46.0922C44.5906 19.5212 43.3848 18.3836 43.3848 16.9503V12.8551C43.3848 12.1953 43.908 11.672 44.5451 11.672C45.2049 11.672 45.7281 12.1953 45.7281 12.8551V16.9503C45.7281 17.0641 45.8646 17.2005 46.0922 17.2005H48.2535C48.9133 17.2005 49.4366 17.7238 49.4366 18.3609C49.4366 18.9979 48.9133 19.5212 48.2535 19.5212Z" fill="#6C00A1"/>
<path d="M1.1603 19.5212C0.523271 19.5212 0 18.998 0 18.361V1.63885C0 1.00181 0.523271 0.478516 1.1603 0.478516C1.79734 0.478516 2.32062 1.00181 2.32062 1.63885V18.361C2.32062 18.998 1.79734 19.5212 1.1603 19.5212Z" fill="#6C00A1"/>
<path d="M33.3542 17.6994C32.6944 17.6994 32.1712 17.1762 32.1712 16.5392V15.1058H27.7574V16.5392C27.7574 17.1762 27.2342 17.6994 26.5744 17.6994C25.9373 17.6994 25.4141 17.1762 25.4141 16.5392V14.7191C25.4141 13.627 26.3924 12.7625 27.6209 12.7625H32.3304C33.559 12.7625 34.5145 13.627 34.5145 14.7191V16.5392C34.5145 17.1762 33.9913 17.6994 33.3542 17.6994Z" fill="#6C00A1"/>
<path d="M31.9437 19.5217H27.9849C26.5744 19.5217 25.4141 18.3842 25.4141 16.9509V14.9715C25.4141 14.3345 25.9373 13.8112 26.5744 13.8112C27.2342 13.8112 27.7574 14.3345 27.7574 14.9715V16.9509C27.7574 17.0874 27.8484 17.2011 27.9849 17.2011H31.9437C32.0802 17.2011 32.1712 17.0874 32.1712 16.9509V10.9218C32.1712 10.7853 32.0802 10.6943 31.9437 10.6943H27.9849C27.8484 10.6943 27.7574 10.7853 27.7574 10.9218C27.7574 11.5589 27.2342 12.0821 26.5744 12.0821C25.9373 12.0821 25.4141 11.5589 25.4141 10.9218C25.4141 9.51127 26.5744 8.35095 27.9849 8.35095H31.9437C33.3542 8.35095 34.5145 9.51127 34.5145 10.9218V16.9509C34.5145 18.3842 33.3542 19.5217 31.9437 19.5217Z" fill="#6C00A1"/>
<path d="M22.7979 19.5217C22.1382 19.5217 21.6149 18.9985 21.6149 18.3615V11.3541C21.6149 10.9901 21.3191 10.6943 20.9551 10.6943H17.6789C17.3149 10.6943 17.0191 10.9901 17.0191 11.3541V18.3615C17.0191 18.9985 16.4959 19.5217 15.8361 19.5217C15.1991 19.5217 14.6758 18.9985 14.6758 18.3615V11.3541C14.6758 9.69326 16.0181 8.35095 17.6789 8.35095H20.9551C22.6159 8.35095 23.9583 9.69326 23.9583 11.3541V18.3615C23.9583 18.9985 23.435 19.5217 22.7979 19.5217Z" fill="#6C00A1"/>
<path d="M128.566 19.5203C127.929 19.5203 127.406 18.997 127.406 18.36V3.04843C127.406 2.95743 127.246 2.82092 127.019 2.82092H124.858C124.221 2.82092 123.697 2.29765 123.697 1.63787C123.697 1.00084 124.221 0.477539 124.858 0.477539H127.019C128.521 0.477539 129.726 1.63786 129.726 3.04843V18.36C129.726 18.997 129.203 19.5203 128.566 19.5203Z" fill="#6C00A1"/>
<path d="M121.151 10.6928C120.514 10.6928 119.99 10.1695 119.99 9.50974V3.04843C119.99 1.63786 121.196 0.477539 122.698 0.477539H124.859C125.496 0.477539 126.019 1.00084 126.019 1.63787C126.019 2.29765 125.496 2.82092 124.859 2.82092H122.698C122.47 2.82092 122.334 2.95743 122.334 3.04843V9.50974C122.334 10.1695 121.81 10.6928 121.151 10.6928Z" fill="#6C00A1"/>
<path d="M113.733 19.5203C113.096 19.5203 112.572 18.997 112.572 18.36V3.04843C112.572 1.63786 113.778 0.477539 115.28 0.477539H117.441C118.101 0.477539 118.624 1.00084 118.624 1.63787C118.624 2.29765 118.101 2.82092 117.441 2.82092H115.28C115.052 2.82092 114.916 2.95743 114.916 3.04843V18.36C114.916 18.997 114.392 19.5203 113.733 19.5203Z" fill="#6C00A1"/>
<path d="M121.148 10.6928C120.511 10.6928 119.988 10.1695 119.988 9.50974V3.04843C119.988 2.95743 119.851 2.82092 119.624 2.82092H117.44C116.803 2.82092 116.279 2.29765 116.279 1.63787C116.279 1.00084 116.803 0.477539 117.44 0.477539H119.624C121.103 0.477539 122.331 1.63786 122.331 3.04843V9.50974C122.331 10.1695 121.808 10.6928 121.148 10.6928Z" fill="#6C00A1"/>
<path d="M139.007 15.1079H134.297C133.069 15.1079 132.113 14.2433 132.113 13.1513V11.3312C132.113 10.6941 132.637 10.1709 133.274 10.1709C133.911 10.1709 134.434 10.6941 134.434 11.3312V12.7645H138.87V11.3312C138.87 10.6941 139.394 10.1709 140.031 10.1709C140.69 10.1709 141.191 10.6941 141.191 11.3312V13.1513C141.191 14.2433 140.235 15.1079 139.007 15.1079Z" fill="#6C00A1"/>
<path d="M138.643 19.5222H134.661C133.251 19.5222 132.113 18.3847 132.113 16.9514V10.9223C132.113 9.51176 133.251 8.35144 134.661 8.35144H138.643C140.053 8.35144 141.191 9.51176 141.191 10.9223V12.9017C141.191 13.5615 140.69 14.0847 140.031 14.0847C139.394 14.0847 138.87 13.5615 138.87 12.9017V10.9223C138.87 10.7858 138.757 10.6948 138.643 10.6948H134.661C134.548 10.6948 134.434 10.7858 134.434 10.9223V16.9514C134.434 17.0879 134.548 17.2016 134.661 17.2016H138.643C138.757 17.2016 138.87 17.0879 138.87 16.9514C138.87 16.3144 139.394 15.7911 140.031 15.7911C140.69 15.7911 141.191 16.3144 141.191 16.9514C141.191 18.3847 140.053 19.5222 138.643 19.5222Z" fill="#6C00A1"/>
<path d="M148.84 19.5212H145.95C144.29 19.5212 142.947 18.1789 142.947 16.5181V1.63885C142.947 1.00181 143.471 0.478516 144.108 0.478516C144.745 0.478516 145.268 1.00181 145.268 1.63885V16.5181C145.268 16.9049 145.586 17.2006 145.95 17.2006H148.84C149.477 17.2006 150 17.7239 150 18.361C150 18.998 149.477 19.5212 148.84 19.5212Z" fill="#6C00A1"/>
<path d="M8.57719 15.1075H1.1603C0.523271 15.1075 0 14.5842 0 13.9472C0 13.2874 0.523271 12.7641 1.1603 12.7641H7.71265L11.2846 1.29758C11.4211 0.819805 11.8761 0.478516 12.3994 0.478516H14.0147C15.6528 0.478516 17.0179 1.82082 17.0179 3.48166V11.6039C17.0179 12.2409 16.4946 12.7641 15.8348 12.7641C15.1978 12.7641 14.6745 12.2409 14.6745 11.6039V3.48166C14.6745 3.11764 14.3787 2.8219 14.0147 2.8219H13.2639L9.69199 14.2885C9.53273 14.7662 9.07771 15.1075 8.57719 15.1075Z" fill="#6C00A1"/>
<path d="M12.1036 19.5209C11.7624 19.5209 11.4211 19.3844 11.1936 19.0886L8.00841 15.1072H1.1603C0.523271 15.1072 0 14.5839 0 13.9468C0 13.2871 0.523271 12.7638 1.1603 12.7638H8.57719C8.91845 12.7638 9.25972 12.9231 9.48723 13.2188L13.0137 17.6326C13.4232 18.1331 13.3322 18.8611 12.8317 19.2706C12.6269 19.4527 12.3539 19.5209 12.1036 19.5209Z" fill="#6C00A1"/>
<path d="M81.0836 19.0413H78.9222C77.4206 19.0413 76.2148 17.881 76.2148 16.4704V9.03082C76.2148 8.39378 76.7381 7.87048 77.3751 7.87048C78.0349 7.87048 78.5582 8.39378 78.5582 9.03082V16.4704C78.5582 16.5614 78.6947 16.6979 78.9222 16.6979H81.0836C81.7206 16.6979 82.2439 17.2212 82.2439 17.881C82.2439 18.518 81.7206 19.0413 81.0836 19.0413Z" fill="#6C00A1"/>
<path d="M83.2683 19.0421H81.0841C80.4471 19.0421 79.9238 18.5188 79.9238 17.8818C79.9238 17.222 80.4471 16.6988 81.0841 16.6988H83.2683C83.473 16.6988 83.6323 16.5623 83.6323 16.4713V12.3533C83.6323 11.7162 84.1556 11.193 84.7926 11.193C85.4296 11.193 85.9529 11.7162 85.9529 12.3533V16.4713C85.9529 17.8818 84.7471 19.0421 83.2683 19.0421Z" fill="#6C00A1"/>
<path d="M90.6615 19.0413H88.5002C87.8631 19.0413 87.3398 18.518 87.3398 17.881C87.3398 17.2212 87.8631 16.6979 88.5002 16.6979H90.6615C90.889 16.6979 91.0255 16.5614 91.0255 16.4704V9.03082C91.0255 8.39378 91.5488 7.87048 92.2086 7.87048C92.8456 7.87048 93.3689 8.39378 93.3689 9.03082V16.4704C93.3689 17.881 92.1631 19.0413 90.6615 19.0413Z" fill="#6C00A1"/>
<path d="M88.4996 19.0421H86.3155C84.8367 19.0421 83.6309 17.8818 83.6309 16.4713V12.3533C83.6309 11.7162 84.1541 11.193 84.7912 11.193C85.4282 11.193 85.9515 11.7162 85.9515 12.3533V16.4713C85.9515 16.5623 86.1107 16.6988 86.3155 16.6988H88.4996C89.1366 16.6988 89.6599 17.222 89.6599 17.8818C89.6599 18.5188 89.1366 19.0421 88.4996 19.0421Z" fill="#6C00A1"/>
<path d="M59.3595 19.0427C58.7225 19.0427 58.1992 18.5194 58.1992 17.8824V2.57084C58.1992 1.13751 59.405 0 60.9066 0H64.7971C66.4579 0 67.8002 1.34231 67.8002 3.00314V10.875C67.8002 11.512 67.2769 12.0353 66.6399 12.0353C66.0029 12.0353 65.4796 11.512 65.4796 10.875V3.00314C65.4796 2.61637 65.1838 2.32061 64.7971 2.32061H60.9066C60.6791 2.32061 60.5426 2.45708 60.5426 2.57084V17.8824C60.5426 18.5194 60.0193 19.0427 59.3595 19.0427Z" fill="#6C00A1"/>
<path d="M59.3578 19.0427C58.7208 19.0427 58.1975 18.5194 58.1975 17.8824V2.57084C58.1975 2.45708 58.061 2.32061 57.8335 2.32061H53.2378C52.578 2.32061 52.0547 1.79731 52.0547 1.16028C52.0547 0.523243 52.578 0 53.2378 0H57.8335C59.3351 0 60.5409 1.13751 60.5409 2.57084V17.8824C60.5409 18.5194 60.0176 19.0427 59.3578 19.0427Z" fill="#6C00A1"/>
<path d="M102.45 17.2223C101.79 17.2223 101.267 16.699 101.267 16.0619V14.6286H96.8531V16.0619C96.8531 16.699 96.3299 17.2223 95.6701 17.2223C95.0331 17.2223 94.5098 16.699 94.5098 16.0619V14.2418C94.5098 13.1498 95.4653 12.2853 96.7166 12.2853H101.426C102.655 12.2853 103.61 13.1498 103.61 14.2418V16.0619C103.61 16.699 103.087 17.2223 102.45 17.2223Z" fill="#6C00A1"/>
<path d="M101.039 19.0433H97.0807C95.6701 19.0433 94.5098 17.883 94.5098 16.4724V14.493C94.5098 13.8333 95.0331 13.31 95.6701 13.31C96.3299 13.31 96.8531 13.8333 96.8531 14.493V16.4724C96.8531 16.6089 96.9442 16.6999 97.0807 16.6999H101.039C101.176 16.6999 101.267 16.6089 101.267 16.4724V10.4433C101.267 10.3068 101.176 10.193 101.039 10.193H97.0807C96.9442 10.193 96.8531 10.3068 96.8531 10.4433C96.8531 11.0804 96.3299 11.6037 95.6701 11.6037C95.0331 11.6037 94.5098 11.0804 94.5098 10.4433C94.5098 9.01001 95.6701 7.87244 97.0807 7.87244H101.039C102.45 7.87244 103.61 9.01001 103.61 10.4433V16.4724C103.61 17.883 102.45 19.0433 101.039 19.0433Z" fill="#6C00A1"/>
<path d="M105.908 19.0415C105.271 19.0415 104.748 18.5182 104.748 17.8811V10.4415C104.748 9.00817 105.954 7.87061 107.455 7.87061H109.617C110.277 7.87061 110.8 8.3939 110.8 9.03094C110.8 9.66797 110.277 10.1912 109.617 10.1912H107.455C107.228 10.1912 107.091 10.3277 107.091 10.4415V17.8811C107.091 18.5182 106.568 19.0415 105.908 19.0415Z" fill="#6C00A1"/>
<path d="M73.5779 19.0433C72.9409 19.0433 72.4176 18.52 72.4176 17.8829V10.8756C72.4176 10.5116 72.1219 10.193 71.7578 10.193H68.4817C68.1177 10.193 67.7991 10.5116 67.7991 10.8756V17.8829C67.7991 18.52 67.2759 19.0433 66.6388 19.0433C66.0018 19.0433 65.4785 18.52 65.4785 17.8829V10.8756C65.4785 9.21474 66.8208 7.87244 68.4817 7.87244H71.7578C73.4187 7.87244 74.761 9.21474 74.761 10.8756V17.8829C74.761 18.52 74.2377 19.0433 73.5779 19.0433Z" fill="#6C00A1"/>
</svg>
