<svg width="50" height="48" viewBox="0 0 50 48" fill="none" xmlns="http://www.w3.org/2000/svg">
<path fill-rule="evenodd" clip-rule="evenodd" d="M24.0922 0C37.0823 0 50 7.87221 50 20.8624C50 35.2502 38.48 47.0567 24.0922 47.0567C10.1938 47.0567 0 34.7607 0 20.8624C0 8.41654 11.6463 0 24.0922 0Z" fill="#FCCD35"/>
<path d="M35.1957 26.0444H33.7254C33.6712 26.0444 33.6289 26.082 33.6289 26.1291V31.9987C33.6289 32.0411 33.6712 32.0787 33.7254 32.0787H35.1981C35.2475 32.0787 35.2921 32.0411 35.2921 31.9987V26.127C35.2898 26.0824 35.2475 26.0446 35.1958 26.0446L35.1957 26.0444Z" fill="black"/>
<path d="M32.8786 31.1348C32.8927 31.1395 32.9068 31.1441 32.9232 31.1512C32.9915 31.1723 33.0479 31.2006 33.1067 31.2311V26.4743C33.0502 26.4461 32.9726 26.4085 32.8809 26.3662C32.6198 26.2485 32.2315 26.0955 31.7704 25.9874C31.4034 25.9027 31.0529 25.8556 30.714 25.8486C30.0223 25.8345 29.3919 25.9826 28.8297 26.2956C28.8156 26.3027 28.8015 26.312 28.7873 26.3191C28.291 26.5897 27.7688 26.7779 27.2535 26.9049C26.9405 26.9825 26.6301 27.039 26.3337 27.0767C25.8866 27.1355 25.4656 27.1543 25.0987 27.1543C24.8517 27.1543 24.6305 27.1473 24.44 27.1332C24.3929 27.1284 24.3505 27.1261 24.3036 27.1261C24.1743 27.1191 24.0471 27.112 23.9178 27.1072C23.6661 27.0979 23.4166 27.0908 23.1674 27.0931C22.991 27.0931 22.8168 27.0954 22.6427 27.1025L22.3557 27.1095C21.8782 27.1284 21.4806 27.4389 21.3465 27.8718C21.3372 27.9023 21.3277 27.933 21.3206 27.9658C21.3016 28.041 21.2922 28.1211 21.2922 28.2057C21.2922 28.2693 21.2993 28.3351 21.3111 28.3987C21.3511 28.5822 21.4428 28.754 21.584 28.8858C21.7745 29.0647 22.0169 29.1587 22.2803 29.1469L22.7766 29.1257L23.1672 29.1093L23.9176 29.0788L24.4728 29.0553L26.1384 28.987C26.2818 28.9823 26.4042 29.0952 26.4113 29.2388C26.4161 29.3847 26.3032 29.5069 26.1596 29.514L22.3037 29.6717H22.2402C21.8614 29.6717 21.5014 29.5282 21.2262 29.2624C21.2003 29.2412 21.1791 29.2153 21.1579 29.1941L19.8216 28.2766L18.8172 27.5874L16.9845 26.3288C16.8527 26.2393 16.7068 26.1829 16.5586 26.1617C16.5211 26.157 16.4833 26.1524 16.4457 26.1524H16.441C16.2152 26.1524 16.001 26.2323 15.8293 26.3711C15.6177 26.5429 15.4929 26.7899 15.4741 27.0581C15.46 27.331 15.5517 27.5875 15.7399 27.785C16.8433 28.9539 18.5795 30.5843 20.5862 31.7323C23.0375 33.1298 25.1879 33.3979 26.983 32.5276C28.5381 31.7747 29.872 31.2901 30.9423 31.0973C31.7398 30.9512 32.3915 30.963 32.8785 31.1347L32.8786 31.1348Z" fill="black"/>
<path d="M16.147 25.4327C16.2435 25.4163 16.3423 25.4068 16.4411 25.4068H16.4599C16.6623 25.4115 16.8622 25.4514 17.0504 25.5267C16.4693 24.5246 16.1117 23.3765 16.053 22.1509H18.8219C18.8524 23.3601 19.029 24.5223 19.3372 25.5716H17.154C17.2386 25.6116 17.321 25.6585 17.4009 25.7127L18.2879 26.322H19.5864C19.7464 26.7479 19.9299 27.1501 20.1369 27.5242C20.1581 27.5618 20.1793 27.5995 20.2005 27.6348L20.5721 27.8888C20.5863 27.8089 20.6051 27.7288 20.6286 27.6489C20.6757 27.496 20.7438 27.3525 20.8286 27.2208C20.8168 27.1996 20.8052 27.1808 20.7957 27.1596C20.6498 26.896 20.5157 26.6138 20.3957 26.3197H23.1694V26.3432H23.1764C23.4163 26.3432 23.6635 26.3479 23.9175 26.3573V26.3173H26.3454C27.0323 26.2185 27.7828 26.0184 28.4626 25.6397C28.5072 25.6162 28.552 25.5903 28.5967 25.5691H27.7427C28.0509 24.5198 28.2273 23.3577 28.258 22.1484H31.0269C30.9752 23.207 30.6998 24.2092 30.2528 25.1103C30.3727 25.1009 30.4952 25.0962 30.6197 25.0962C30.7704 25.0962 30.9231 25.1032 31.0809 25.1173C31.0997 25.0727 31.1209 25.0279 31.1396 24.9833C31.57 23.967 31.789 22.8872 31.789 21.7744C31.789 20.6617 31.5702 19.5819 31.1396 18.5656C30.7233 17.5846 30.1304 16.7024 29.3729 15.9449C28.6154 15.1874 27.7332 14.5922 26.7522 14.1782C25.7359 13.7477 24.6561 13.5288 23.5433 13.5288C22.4306 13.5288 21.3508 13.7476 20.3345 14.1782C19.3535 14.5945 18.4713 15.1874 17.7138 15.9449C16.9563 16.7024 16.3611 17.5846 15.9471 18.5656C15.5117 19.5818 15.293 20.6617 15.293 21.7744C15.293 22.8872 15.5117 23.967 15.9423 24.9833C16.0058 25.1362 16.0741 25.2846 16.147 25.4327L16.147 25.4327ZM31.0269 21.4004H28.258C28.2275 20.1912 28.0509 19.029 27.7428 17.9797H30.0036C30.5988 18.9914 30.9657 20.1559 31.0269 21.4004H31.0269ZM29.4978 17.2293H27.491C27.331 16.8034 27.1476 16.4012 26.9405 16.0271C26.6512 15.5025 26.3241 15.0509 25.9688 14.6838C27.3829 15.1685 28.6061 16.0648 29.4978 17.2293ZM23.9126 14.3122C24.7948 14.4722 25.6254 15.1967 26.284 16.3896C26.4299 16.6531 26.564 16.9354 26.684 17.2294L23.9126 17.2293L23.9126 14.3122ZM23.9126 17.9797H26.9569C27.2839 19.0149 27.4744 20.1793 27.505 21.4004H23.9126V17.9797ZM23.9126 22.1485H27.505C27.472 23.3694 27.2838 24.5341 26.9569 25.5692L23.9126 25.5691V22.1485ZM23.1645 25.5691H20.1202C19.7932 24.5339 19.6027 23.3695 19.5721 22.1484H23.1645V25.5691ZM23.1645 21.4004H19.5698C19.6028 20.1795 19.7911 19.0149 20.118 17.9797H23.1622V21.4004H23.1645ZM23.1645 14.3121V17.2293L20.3908 17.2291C20.5131 16.9351 20.6449 16.6528 20.7908 16.3893C21.4519 15.1966 22.2823 14.4719 23.1645 14.3121ZM21.1085 14.6838C20.7532 15.0532 20.4286 15.5025 20.1368 16.0271C19.9297 16.4011 19.7463 16.8035 19.5863 17.2293H17.5795C18.4712 16.0647 19.6946 15.1684 21.1085 14.6838ZM17.0762 17.9796H19.337C19.0288 19.0289 18.8524 20.191 18.8217 21.4003H16.0528C16.1139 20.1557 16.4786 18.9913 17.0762 17.9796Z" fill="black"/>
</svg>
